<svg width="143" height="282" viewBox="0 0 143 282" fill="none" xmlns="http://www.w3.org/2000/svg">
<path d="M32.459 27.5066H60V55.9956H32.459V27.5066Z" fill="url(#paint0_linear_1_6793)"/>
<path d="M60 42.2423H88.5246V69.7489H60V42.2423Z" fill="url(#paint1_linear_1_6793)"/>
<path d="M88.5246 55.9956H116.066V84.4846H88.5246V55.9956Z" fill="url(#paint2_linear_1_6793)"/>
<path d="M46.2295 195.493H73.7705V223H46.2295V195.493Z" fill="url(#paint3_linear_1_6793)"/>
<path d="M125.705 89.3745H153.246V117.863H125.705V89.3745Z" fill="url(#paint4_linear_1_6793)"/>
<path d="M102.295 27.5066H129.836V55.9956H102.295V27.5066Z" fill="url(#paint5_linear_1_6793)"/>
<path d="M60 167.004H88.5246V195.493H60V167.004Z" fill="url(#paint6_linear_1_6793)"/>
<path d="M139.475 60.8855H168V89.3745H139.475V60.8855Z" fill="url(#paint7_linear_1_6793)"/>
<path d="M116.066 0H143.607V27.5066H116.066V0Z" fill="url(#paint8_linear_1_6793)"/>
<path d="M143.607 42.2423H172.131V69.7489H143.607V42.2423Z" fill="url(#paint9_linear_1_6793)"/>
<path d="M90.459 122.938H118.984V151.427H90.459V122.938Z" fill="url(#paint10_linear_1_6793)"/>
<path d="M0 143.427H27.541V170.934H0V143.427Z" fill="url(#paint11_linear_1_6793)"/>
<path d="M46.2295 105.115H73.7705V132.621H46.2295V105.115Z" fill="url(#paint12_linear_1_6793)"/>
<path d="M91.2951 253H119.82V281.489H91.2951V253Z" fill="url(#paint13_linear_1_6793)"/>
<path d="M118.984 205.493H146.525V233H118.984V205.493Z" fill="url(#paint14_linear_1_6793)"/>
<path d="M132.754 177.004H161.279V205.493H132.754V177.004Z" fill="url(#paint15_linear_1_6793)"/>
<path d="M156.049 183H184.574V211.489H156.049V183Z" fill="url(#paint16_linear_1_6793)"/>
<defs>
<linearGradient id="paint0_linear_1_6793" x1="178" y1="-61" x2="-41.7004" y2="99.3733" gradientUnits="userSpaceOnUse">
<stop stop-color="#FD1524"/>
<stop offset="1" stop-color="#FD1524" stop-opacity="0"/>
</linearGradient>
<linearGradient id="paint1_linear_1_6793" x1="178" y1="-61" x2="-41.7004" y2="99.3733" gradientUnits="userSpaceOnUse">
<stop stop-color="#FD1524"/>
<stop offset="1" stop-color="#FD1524" stop-opacity="0"/>
</linearGradient>
<linearGradient id="paint2_linear_1_6793" x1="178" y1="-61" x2="-41.7004" y2="99.3733" gradientUnits="userSpaceOnUse">
<stop stop-color="#FD1524"/>
<stop offset="1" stop-color="#FD1524" stop-opacity="0"/>
</linearGradient>
<linearGradient id="paint3_linear_1_6793" x1="178" y1="-61" x2="-41.7004" y2="99.3733" gradientUnits="userSpaceOnUse">
<stop stop-color="#FD1524"/>
<stop offset="1" stop-color="#FD1524" stop-opacity="0"/>
</linearGradient>
<linearGradient id="paint4_linear_1_6793" x1="178" y1="-61" x2="-41.7004" y2="99.3733" gradientUnits="userSpaceOnUse">
<stop stop-color="#FD1524"/>
<stop offset="1" stop-color="#FD1524" stop-opacity="0"/>
</linearGradient>
<linearGradient id="paint5_linear_1_6793" x1="178" y1="-61" x2="-41.7004" y2="99.3733" gradientUnits="userSpaceOnUse">
<stop stop-color="#FD1524"/>
<stop offset="1" stop-color="#FD1524" stop-opacity="0"/>
</linearGradient>
<linearGradient id="paint6_linear_1_6793" x1="178" y1="-61" x2="-41.7004" y2="99.3733" gradientUnits="userSpaceOnUse">
<stop stop-color="#FD1524"/>
<stop offset="1" stop-color="#FD1524" stop-opacity="0"/>
</linearGradient>
<linearGradient id="paint7_linear_1_6793" x1="178" y1="-61" x2="-41.7004" y2="99.3733" gradientUnits="userSpaceOnUse">
<stop stop-color="#FD1524"/>
<stop offset="1" stop-color="#FD1524" stop-opacity="0"/>
</linearGradient>
<linearGradient id="paint8_linear_1_6793" x1="178" y1="-61" x2="-41.7004" y2="99.3733" gradientUnits="userSpaceOnUse">
<stop stop-color="#FD1524"/>
<stop offset="1" stop-color="#FD1524" stop-opacity="0"/>
</linearGradient>
<linearGradient id="paint9_linear_1_6793" x1="178" y1="-61" x2="-41.7004" y2="99.3733" gradientUnits="userSpaceOnUse">
<stop stop-color="#FD1524"/>
<stop offset="1" stop-color="#FD1524" stop-opacity="0"/>
</linearGradient>
<linearGradient id="paint10_linear_1_6793" x1="178" y1="-61" x2="-41.7004" y2="99.3733" gradientUnits="userSpaceOnUse">
<stop stop-color="#FD1524"/>
<stop offset="1" stop-color="#FD1524" stop-opacity="0"/>
</linearGradient>
<linearGradient id="paint11_linear_1_6793" x1="178" y1="-61" x2="-41.7004" y2="99.3733" gradientUnits="userSpaceOnUse">
<stop stop-color="#FD1524"/>
<stop offset="1" stop-color="#FD1524" stop-opacity="0"/>
</linearGradient>
<linearGradient id="paint12_linear_1_6793" x1="178" y1="-61" x2="-41.7004" y2="99.3733" gradientUnits="userSpaceOnUse">
<stop stop-color="#FD1524"/>
<stop offset="1" stop-color="#FD1524" stop-opacity="0"/>
</linearGradient>
<linearGradient id="paint13_linear_1_6793" x1="178" y1="-61" x2="-41.7004" y2="99.3733" gradientUnits="userSpaceOnUse">
<stop stop-color="#FD1524"/>
<stop offset="1" stop-color="#FD1524" stop-opacity="0"/>
</linearGradient>
<linearGradient id="paint14_linear_1_6793" x1="178" y1="-61" x2="-41.7004" y2="99.3733" gradientUnits="userSpaceOnUse">
<stop stop-color="#FD1524"/>
<stop offset="1" stop-color="#FD1524" stop-opacity="0"/>
</linearGradient>
<linearGradient id="paint15_linear_1_6793" x1="178" y1="-61" x2="-41.7004" y2="99.3733" gradientUnits="userSpaceOnUse">
<stop stop-color="#FD1524"/>
<stop offset="1" stop-color="#FD1524" stop-opacity="0"/>
</linearGradient>
<linearGradient id="paint16_linear_1_6793" x1="178" y1="-61" x2="-41.7004" y2="99.3733" gradientUnits="userSpaceOnUse">
<stop stop-color="#FD1524"/>
<stop offset="1" stop-color="#FD1524" stop-opacity="0"/>
</linearGradient>
</defs>
</svg>
